<svg xmlns="http://www.w3.org/2000/svg" width="48.66" height="46.788" viewBox="0 0 48.66 46.788">
  <path id="_ionicons_svg_ios-heart-empty" d="M83.559,56h-.117A13.309,13.309,0,0,0,72.33,62.083,13.309,13.309,0,0,0,61.218,56H61.1A13.225,13.225,0,0,0,48,69.218c0,4.328,1.895,10.469,5.591,15.522,7.042,9.627,18.739,18.049,18.739,18.049s11.7-8.422,18.739-18.049c3.7-5.053,5.591-11.194,5.591-15.522A13.225,13.225,0,0,0,83.559,56Zm4.866,26.81c-4.983,6.819-12.574,13.112-16.1,15.861-3.521-2.749-11.112-9.054-16.1-15.873-3.427-4.679-4.96-10.188-4.96-13.58a9.924,9.924,0,0,1,9.849-9.931h.105a9.807,9.807,0,0,1,4.808,1.263,10.221,10.221,0,0,1,3.556,3.334,3.286,3.286,0,0,0,5.5,0,10.323,10.323,0,0,1,3.556-3.334,9.807,9.807,0,0,1,4.808-1.263h.105a9.924,9.924,0,0,1,9.849,9.931A25.554,25.554,0,0,1,88.425,82.81Z" transform="translate(-48 -56)" opacity="0.05"/>
</svg>
