<svg xmlns="http://www.w3.org/2000/svg" width="15.195" height="10.52" viewBox="0 0 15.195 10.52">
  <g id="_ionicons_svg_ios-mail" transform="translate(-48 -112)">
    <path id="Path_1" data-name="Path 1" d="M63.071,146.707l-3.93,4a.071.071,0,0,0,0,.1l2.75,2.929a.474.474,0,0,1,0,.672.476.476,0,0,1-.672,0L58.479,151.5a.075.075,0,0,0-.106,0l-.668.679a2.941,2.941,0,0,1-2.1.884,3,3,0,0,1-2.14-.91l-.643-.654a.075.075,0,0,0-.106,0l-2.739,2.918a.476.476,0,0,1-.672,0,.474.474,0,0,1,0-.672l2.75-2.929a.078.078,0,0,0,0-.1l-3.934-4a.072.072,0,0,0-.124.051v8.01a1.172,1.172,0,0,0,1.169,1.169H62.026a1.172,1.172,0,0,0,1.169-1.169v-8.01A.073.073,0,0,0,63.071,146.707Z" transform="translate(0 -33.418)" fill="#fff"/>
    <path id="Path_2" data-name="Path 2" d="M67.255,118.688a1.986,1.986,0,0,0,1.428-.6l5.731-5.833a1.148,1.148,0,0,0-.723-.256H60.823a1.14,1.14,0,0,0-.723.256l5.731,5.833A1.986,1.986,0,0,0,67.255,118.688Z" transform="translate(-11.658)" fill="#fff"/>
  </g>
</svg>
