<svg id="tick" xmlns="http://www.w3.org/2000/svg" width="68" height="68" viewBox="0 0 68 68">
  <path id="Path_5" data-name="Path 5" d="M114.353,89.919h0a2.448,2.448,0,0,1-1.879-.854l-12.9-14.01a2.54,2.54,0,1,1,3.759-3.417l11.105,12.045,30.754-30.668A2.537,2.537,0,0,1,148.78,56.6L116.147,89.15A2.327,2.327,0,0,1,114.353,89.919Z" transform="translate(-82.745 -43.702)" fill="#4dcfe0"/>
  <path id="Path_6" data-name="Path 6" d="M34,68A34,34,0,1,1,34,0a2.517,2.517,0,0,1,2.563,2.563A2.517,2.517,0,0,1,34,5.125,28.874,28.874,0,1,0,62.875,34,2.563,2.563,0,1,1,68,34,34.089,34.089,0,0,1,34,68Z" fill="#1185e0"/>
</svg>
